ply
format ascii 1.0
comment Created in Blender version 4.1.1
element vertex 8
property float x
property float y
property float z
property float nx
property float ny
property float nz
property uchar red
property uchar green
property uchar blue
property uchar alpha
element face 6
property list uchar uint vertex_indices
end_header
-1 -1 -1 -0.57735026 -0.57735026 -0.57735026 255 0 0 255
-1 -1 1 -0.57735026 -0.57735026 0.57735026 255 0 0 255
-1 1 -1 -0.57735026 0.57735026 -0.57735026 255 0 0 255
-1 1 1 -0.57735026 0.57735026 0.57735026 255 0 0 255
1 -1 -1 0.57735026 -0.57735026 -0.57735026 255 0 0 255
1 -1 1 0.57735026 -0.57735026 0.57735026 255 0 0 255
1 1 -1 0.57735026 0.57735026 -0.57735026 255 0 0 255
1 1 1 0.57735026 0.57735026 0.57735026 255 0 0 255
4 0 1 3 2
4 2 3 7 6
4 6 7 5 4
4 4 5 1 0
4 2 6 4 0
4 7 3 1 5
